<?xml version="1.0" encoding="utf-8"?>
<!-- Generator: Adobe Illustrator 14.0.0, SVG Export Plug-In . SVG Version: 6.00 Build 43363)  -->
<!DOCTYPE svg PUBLIC "-//W3C//DTD SVG 1.1//EN" "http://www.w3.org/Graphics/SVG/1.1/DTD/svg11.dtd">
<svg version="1.1" id="Layer_1" xmlns="http://www.w3.org/2000/svg" xmlns:xlink="http://www.w3.org/1999/xlink" x="0px" y="0px"
	 width="841.89px" height="595.281px" viewBox="0 0 841.89 595.281" enable-background="new 0 0 841.89 595.281"
	 xml:space="preserve">
<line fill="none" stroke="#000000" stroke-width="3" stroke-linecap="round" stroke-linejoin="round" stroke-miterlimit="10" x1="319.023" y1="412.438" x2="364.102" y2="412.438"/>
<text transform="matrix(1 0 0 1 335.1978 425.5103)" font-family="'ArialMT'" font-size="10.7013">0.02</text>
<path fill="none" stroke="#000000" stroke-width="3" stroke-miterlimit="10" d="M410.438,275.156h-21.185v16.345"/>
<path fill="none" stroke="#000000" stroke-width="3" stroke-miterlimit="10" d="M490.74,209.775H320.821v-30.646"/>
<path fill="none" stroke="#000000" stroke-width="3" stroke-miterlimit="10" d="M396.171,177.085h-46.598v-28.604"/>
<path fill="none" stroke="#000000" stroke-width="3" stroke-miterlimit="10" d="M408.204,79.014H367v16.345"/>
<path fill="none" stroke="#000000" stroke-width="3" stroke-miterlimit="10" d="M437.837,340.538h-52.973v-24.519"/>
<path fill="none" stroke="#000000" stroke-width="3" stroke-miterlimit="10" d="M309.02,210.797H285.63v66.913"/>
<path fill="none" stroke="#000000" stroke-width="3" stroke-miterlimit="10" d="M384.865,316.019h-72.14v28.604"/>
<path fill="none" stroke="#000000" stroke-width="3" stroke-miterlimit="10" d="M320.821,179.129H309.02v31.668"/>
<path fill="none" stroke="#000000" stroke-width="3" stroke-miterlimit="10" d="M364.395,119.877h-14.822v28.604"/>
<path fill="none" stroke="#000000" stroke-width="3" stroke-miterlimit="10" d="M312.725,344.624H285.63V277.71"/>
<path fill="none" stroke="#000000" stroke-width="3" stroke-miterlimit="10" d="M285.63,277.71h-85.908v64.104"/>
<path fill="none" stroke="#000000" stroke-width="3" stroke-miterlimit="10" d="M389.253,291.501h-4.389v24.518"/>
<path fill="none" stroke="#000000" stroke-width="3" stroke-miterlimit="10" d="M387.142,111.705H367V95.359"/>
<path fill="none" stroke="#000000" stroke-width="3" stroke-miterlimit="10" d="M196.813,341.814h2.91"/>
<path fill="none" stroke="#000000" stroke-width="3" stroke-miterlimit="10" d="M418.591,373.227H312.725v-28.604"/>
<path fill="none" stroke="#000000" stroke-width="3" stroke-miterlimit="10" d="M440.256,405.917H199.722v-64.104"/>
<path fill="none" stroke="#000000" stroke-width="3" stroke-miterlimit="10" d="M349.573,148.481h-28.751v30.647"/>
<path fill="none" stroke="#000000" stroke-width="3" stroke-miterlimit="10" d="M407.594,307.846h-18.34v-16.345"/>
<path fill="none" stroke="#000000" stroke-width="3" stroke-miterlimit="10" d="M386.808,144.395h-22.413v-24.518"/>
<path fill="none" stroke="#000000" stroke-width="3" stroke-miterlimit="10" d="M361.857,242.466H309.02v-31.668"/>
<path fill="none" stroke="#000000" stroke-width="3" stroke-miterlimit="10" d="M367,95.359h-2.606v24.518"/>
<text transform="matrix(1 0 0 1 390.1421 115.3047)" enable-background="new    "><tspan x="0" y="0" font-family="'Arial-ItalicMT'" font-size="12.4848">C. tofieldiae</tspan><tspan x="65.93" y="0" font-family="'ArialMT'" font-size="12.4848"> CBS 495.85 AUT</tspan></text>
<g transform="matrix(1,0,0,1,367.1484,323)">
	<text transform="matrix(1 0 0 1 46.2906 -44.2437)" enable-background="new    "><tspan x="0" y="0" font-family="'Arial-ItalicMT'" font-size="12.4848">C. lilii</tspan><tspan x="29.822" y="0" font-family="'ArialMT'" font-size="12.4848"> CBS 109214 AUT</tspan></text>
</g>
<g transform="matrix(1,0,0,1,363.4245,-4)">
	<text transform="matrix(1 0 0 1 47.7806 86.6138)" enable-background="new    "><tspan x="0" y="0" font-family="'Arial-ItalicMT'" font-size="12.4848">C. verruculosum</tspan><tspan x="90.887" y="0" font-family="'ArialMT'" font-size="12.4848"> IMI 45525 HT</tspan></text>
</g>
<g transform="matrix(1,0,0,1,343.3622,159.5)">
	<text transform="matrix(1 0 0 1 55.8092 21.1855)" enable-background="new    "><tspan x="0" y="0" font-family="'Arial-ItalicMT'" font-size="12.4848">C. bletillum</tspan><tspan x="61.747" y="0" font-family="'ArialMT'" font-size="12.4848"> CGMCC 3.15117 HT</tspan></text>
</g>
<g transform="matrix(1,0,0,1,501.0235,214)">
	<text transform="matrix(1 0 0 1 -7.2828 -0.6245)" enable-background="new    "><tspan x="0" y="0" font-family="'Arial-BoldItalicMT'" font-size="12.4848">C. riograndense</tspan><tspan x="95.045" y="0" font-family="'ArialMT'" font-size="12.4848"> </tspan><tspan x="98.513" y="0" font-family="'Arial-BoldMT'" font-size="12.4848">ICMP 20083 HT</tspan></text>
</g>
<g transform="matrix(1,0,0,1,412.8268,432)">
	<text transform="matrix(1 0 0 1 28.0106 -87.8628)" enable-background="new    "><tspan x="0" y="0" font-family="'Arial-ItalicMT'" font-size="12.4848">C. guizhouensis</tspan><tspan x="88.832" y="0" font-family="'ArialMT'" font-size="12.4848"> CGMCC 3.15112 HT</tspan></text>
</g>
<g transform="matrix(1,0,0,1,380.7399,486.5)">
	<text transform="matrix(1 0 0 1 40.8514 -109.6724)" enable-background="new    "><tspan x="0" y="0" font-family="'Arial-ItalicMT'" font-size="12.4848">C. hsienjenchang</tspan><tspan x="96.477" y="0" font-family="'ArialMT'" font-size="12.4848"> MAFF 243051 AUT</tspan></text>
</g>
<g transform="matrix(1,0,0,1,416.8588,541)">
	<text transform="matrix(1 0 0 1 26.3985 -131.4819)" enable-background="new    "><tspan x="0" y="0" font-family="'Arial-ItalicMT'" font-size="12.4848">C. graminicola</tspan><tspan x="79.792" y="0" font-family="'ArialMT'" font-size="12.4848"> CBS 130836 ET</tspan></text>
</g>
<g transform="matrix(1,0,0,1,362.4062,377.5)">
	<text transform="matrix(1 0 0 1 48.188 -66.0522)" enable-background="new    "><tspan x="0" y="0" font-family="'Arial-ItalicMT'" font-size="12.4848">C. spaethianum</tspan><tspan x="87.442" y="0" font-family="'ArialMT'" font-size="12.4848"> CBS 167.49 ET</tspan></text>
</g>
<g transform="matrix(1,0,0,1,327.7528,105)">
	<text transform="matrix(1 0 0 1 62.0558 42.9946)" enable-background="new    "><tspan x="0" y="0" font-family="'Arial-ItalicMT'" font-size="12.4848">C. liriopes</tspan><tspan x="55.505" y="0" font-family="'ArialMT'" font-size="12.4848"> CBS 119444 HT</tspan></text>
</g>
<g transform="matrix(1,0,0,1,286.1552,268.5)">
	<text transform="matrix(1 0 0 1 78.7022 -22.4341)" enable-background="new    "><tspan x="0" y="0" font-family="'Arial-ItalicMT'" font-size="12.4848">C. incanum</tspan><tspan x="63.143" y="0" font-family="'ArialMT'" font-size="12.4848"> NRRL 62592 HT</tspan></text>
</g>
<g transform="matrix(1,0,0,1,331.8299,352.25)">
	<text transform="matrix(1 0 0 1 60.424 -57.7485)" font-family="'ArialMT'" font-size="10.7013">0.69</text>
</g>
<g transform="matrix(1,0,0,1,198.0675,217.7031)">
	<text transform="matrix(1 0 0 1 113.953 2.5137)" font-family="'ArialMT'" font-size="10.7013">0.99</text>
</g>
<g transform="matrix(1,0,0,1,265.6758,113.8125)">
	<text transform="matrix(1 0 0 1 86.8979 37.6689)" font-family="'ArialMT'" font-size="10.7013">1</text>
</g>
<g transform="matrix(1,0,0,1,324.5137,393.125)">
	<text transform="matrix(1 0 0 1 63.352 -74.105)" font-family="'ArialMT'" font-size="10.7013">1</text>
</g>
<g transform="matrix(1,0,0,1,290.3864,66.125)">
	<text transform="matrix(1 0 0 1 77.0091 56.752)" font-family="'ArialMT'" font-size="10.7013">1</text>
</g>
<g transform="matrix(1,0,0,1,217.7428,164.9062)">
	<text transform="matrix(1 0 0 1 106.0795 17.2222)" font-family="'ArialMT'" font-size="10.7013">0.84</text>
</g>
<g transform="matrix(1,0,0,1,204.2452,440.8125)">
	<text transform="matrix(1 0 0 1 111.4809 -93.189)" font-family="'ArialMT'" font-size="10.7013">0.69</text>
</g>
<g transform="matrix(1,0,0,1,294.7303,25.25)">
	<text transform="matrix(1 0 0 1 75.2707 73.1089)" font-family="'ArialMT'" font-size="10.7013">0.76</text>
</g>
</svg>
